<?xml version="1.0" standalone="no"?>
<!DOCTYPE svg PUBLIC "-//W3C//DTD SVG 20010904//EN"
 "http://www.w3.org/TR/2001/REC-SVG-20010904/DTD/svg10.dtd">
<svg version="1.0" xmlns="http://www.w3.org/2000/svg"
 width="340.000000pt" height="431.000000pt" viewBox="0 0 340.000000 431.000000"
 preserveAspectRatio="xMidYMid meet">

<g transform="translate(0.000000,431.000000) scale(0.100000,-0.100000)"
fill="#000000" stroke="none">
<path d="M652 3997 l-52 -53 0 -1597 0 -1596 53 -15 c83 -24 131 -36 140 -36
4 0 7 88 7 195 0 149 3 195 13 195 6 0 50 -11 97 -24 l85 -23 3 -200 2 -201
83 -22 c45 -12 90 -24 99 -26 16 -5 18 11 20 194 l3 199 100 -27 c55 -15 324
-87 597 -161 l498 -133 2 -200 3 -201 98 -26 97 -26 0 199 c0 109 3 198 8 198
6 0 125 -31 175 -46 15 -5 17 -23 17 -204 l0 -199 53 -15 c28 -8 73 -20 98
-26 l46 -12 51 54 52 53 0 1596 0 1596 -97 27 -96 27 -54 -53 -53 -52 0 -99
c0 -89 -2 -98 -17 -93 -10 3 -55 15 -100 27 l-83 22 0 101 0 100 50 51 50 51
-102 27 -103 26 -52 -51 -52 -52 -3 -96 -3 -97 -92 25 -93 25 0 101 0 100 48
51 47 50 -52 -50 -53 -49 0 -99 0 -99 -30 7 c-17 4 -58 14 -93 23 l-62 17 -3
99 -3 100 53 55 53 56 -57 -55 -58 -54 0 -98 c0 -54 -1 -98 -3 -98 -3 0 -141
38 -169 46 -16 5 -18 19 -18 102 l0 96 53 56 52 55 -57 -55 -58 -54 0 -96 0
-97 -95 25 -95 25 0 101 0 100 48 51 47 50 -52 -50 -53 -49 0 -99 0 -99 -30 7
c-17 4 -58 15 -93 24 l-62 18 -3 98 -3 99 53 55 53 56 -57 -55 -58 -54 0 -98
c0 -54 -1 -98 -3 -98 -2 0 -26 6 -53 14 -27 8 -68 20 -91 26 l-43 11 0 97 0
96 51 52 52 53 -54 15 c-30 8 -76 21 -102 27 l-49 12 -49 -49 -49 -48 0 -102
0 -102 -100 26 -100 26 0 100 0 100 51 52 51 51 -84 22 c-45 12 -90 24 -98 27
-9 2 -37 -18 -68 -49z m258 -531 l85 -23 3 -101 3 -100 -101 26 -100 26 0 98
c0 72 3 98 13 98 6 0 50 -11 97 -24z m835 -225 c248 -66 491 -131 542 -145 51
-13 97 -27 103 -31 10 -6 16 -995 6 -995 -5 0 -1065 283 -1143 306 l-53 15 0
499 0 499 48 -14 c26 -7 250 -68 497 -134z m-835 -175 l85 -23 3 -101 3 -100
-101 26 -100 26 0 98 c0 72 3 98 13 98 6 0 50 -11 97 -24z m1780 -76 c41 -12
83 -23 93 -26 15 -5 17 -19 17 -105 0 -91 -2 -100 -17 -95 -10 3 -55 15 -100
27 l-83 22 0 99 c0 54 3 98 8 98 4 0 41 -9 82 -20z m-1780 -324 l85 -23 3
-101 3 -100 -101 26 -100 26 0 98 c0 72 3 98 13 98 6 0 50 -11 97 -24z m1780
-76 c41 -12 83 -23 93 -26 15 -5 17 -19 17 -105 0 -91 -2 -100 -17 -95 -10 3
-55 15 -100 27 l-83 22 0 99 c0 54 3 98 8 98 4 0 41 -9 82 -20z m-1780 -324
l85 -23 3 -101 3 -100 -101 26 -100 26 0 98 c0 72 3 98 13 98 6 0 50 -11 97
-24z m1780 -76 c41 -12 83 -23 93 -26 15 -5 17 -19 17 -105 0 -91 -2 -100 -17
-95 -10 3 -55 15 -100 27 l-83 22 0 99 c0 54 3 98 8 98 4 0 41 -9 82 -20z
m-1220 -74 c69 -19 303 -81 521 -140 218 -58 399 -106 403 -106 3 0 6 -225 6
-500 0 -275 -3 -500 -6 -500 -4 0 -185 48 -403 106 -218 59 -484 130 -591 159
l-195 52 -3 501 -2 501 72 -20 c40 -11 129 -35 198 -53z m-560 -250 l85 -23 3
-101 3 -100 -101 26 -100 26 0 98 c0 72 3 98 13 98 6 0 50 -11 97 -24z m1780
-76 c41 -12 83 -23 93 -26 15 -5 17 -19 17 -105 0 -91 -2 -100 -17 -95 -10 3
-55 15 -100 27 l-83 22 0 99 c0 54 3 98 8 98 4 0 41 -9 82 -20z m-1780 -324
l85 -23 3 -101 3 -100 -101 26 -100 26 0 98 c0 72 3 98 13 98 6 0 50 -11 97
-24z m1780 -76 c41 -12 83 -23 93 -26 15 -5 17 -19 17 -105 0 -91 -2 -100 -17
-95 -10 3 -55 15 -100 27 l-83 22 0 99 c0 54 3 98 8 98 4 0 41 -9 82 -20z m0
-400 c41 -12 83 -23 93 -26 15 -5 17 -19 17 -105 0 -91 -2 -100 -17 -95 -10 3
-55 15 -100 27 l-83 22 0 99 c0 54 3 98 8 98 4 0 41 -9 82 -20z"/>
</g>
</svg>
